# xmcd
#
# Track frame offsets:
#	150
#	12581
#	26488
#	38055
#	50729
#	62177
#	74670
#	84063
#	95358
#	108227
#	117767
#	136906
#	147762
#	160764
#	171982
#	187798
#	197679
#	211670
#	224393
#	235535
#	247875
#	261615
#	271802
#	283146
#	294239
#
# Disc length: 4070 seconds
#
# Revision: 0
# Processed by: cddbd v1.5.2PL0 Copyright (c) Steve Scherf et al.
# Submitted via: dBpowerAMP V4.0
#
DISCID=650fe419
DTITLE=Bill Anderson - Best Of [CD2] 
DYEAR=1991
DGENRE=Country
TTITLE0=Po' Folks
TTITLE1=City Lights
TTITLE2=Get While The Gettin's Good
TTITLE3=8 X 10
TTITLE4=That's What It's Like To Be Lonsome
TTITLE5=For Loving You
TTITLE6=Easy Come-Easy Go
TTITLE7=Once A Day
TTITLE8=I Can Do Nothing Alone
TTITLE9=Cincinnati, Ohio
TTITLE10=Golden Guitar
TTITLE11=Wild Week-End
TTITLE12=Think I'll Go Somewhere And Cry Myself To Sleep
TTITLE13=Ninety-Nine
TTITLE14=Papa
TTITLE15=Happiness
TTITLE16=Five Little Fingers
TTITLE17=Gentle On My Mind
TTITLE18=Coctails
TTITLE19=The Wild Side Of Life
TTITLE20=Little Green Apples
TTITLE21=Sttin' In An All Night Caffe
TTITLE22=Wine
TTITLE23=I Don't Love You Anymore
TTITLE24=The Last Thing On My Mind
EXTD=
EXTT0=
EXTT1=
EXTT2=
EXTT3=
EXTT4=
EXTT5=
EXTT6=
EXTT7=
EXTT8=
EXTT9=
EXTT10=
EXTT11=
EXTT12=
EXTT13=
EXTT14=
EXTT15=
EXTT16=
EXTT17=
EXTT18=
EXTT19=
EXTT20=
EXTT21=
EXTT22=
EXTT23=
EXTT24=
PLAYORDER=
